<svg width="1200" height="290" viewBox="0 0 1200 290" fill="none" xmlns="http://www.w3.org/2000/svg">
<path d="M120.438 54H161.538C162.171 54 162.771 53.8833 163.338 53.65C163.904 53.3833 164.404 53.1333 164.838 52.9C165.271 52.6333 165.571 52.5 165.738 52.5C165.871 52.5 165.971 52.5667 166.038 52.7C166.138 52.8 166.238 53.0833 166.338 53.55L169.488 71.05C169.554 71.2833 169.571 71.4833 169.538 71.65C169.504 71.7833 169.421 71.8667 169.288 71.9C169.154 71.9 169.038 71.8667 168.938 71.8C168.838 71.7333 168.738 71.6167 168.638 71.45C166.871 66.7167 165.221 63.1833 163.688 60.85C162.188 58.4833 160.688 56.9167 159.188 56.15C157.721 55.35 156.171 54.95 154.538 54.95H146.488V121.2C146.488 121.6 146.621 121.9 146.888 122.1C147.188 122.3 147.638 122.45 148.238 122.55L152.838 123.25C153.238 123.283 153.438 123.417 153.438 123.65C153.438 123.883 153.254 124 152.888 124H129.638C129.471 124 129.338 123.967 129.238 123.9C129.171 123.8 129.138 123.717 129.138 123.65C129.138 123.417 129.321 123.283 129.688 123.25L134.288 122.55C134.921 122.45 135.371 122.3 135.638 122.1C135.938 121.9 136.088 121.6 136.088 121.2V54.95H128.038C126.371 54.95 124.788 55.3833 123.288 56.25C121.821 57.1167 120.338 58.75 118.838 61.15C117.338 63.5167 115.704 66.95 113.938 71.45C113.838 71.6167 113.738 71.7333 113.638 71.8C113.538 71.8667 113.421 71.9 113.288 71.9C113.154 71.8667 113.071 71.7833 113.038 71.65C113.038 71.4833 113.054 71.2833 113.088 71.05L116.238 53.55C116.338 53.0833 116.438 52.8 116.538 52.7C116.638 52.5667 116.738 52.5 116.838 52.5C116.971 52.5 117.204 52.6333 117.538 52.9C117.871 53.1333 118.288 53.3833 118.788 53.65C119.288 53.8833 119.838 54 120.438 54ZM204.524 97.5C204.524 97.8 204.408 98.05 204.174 98.25C203.974 98.45 203.691 98.55 203.324 98.55H172.424V97.7H194.624C195.224 97.7 195.524 97.3833 195.524 96.75C195.524 91.2833 194.624 87.1667 192.824 84.4C191.058 81.6 188.808 80.2 186.074 80.2C183.708 80.2 181.674 80.9333 179.974 82.4C178.308 83.8333 177.024 85.95 176.124 88.75C175.224 91.5167 174.774 94.9 174.774 98.9C174.774 105.733 176.241 110.933 179.174 114.5C182.141 118.067 185.974 119.85 190.674 119.85C194.008 119.85 196.858 118.9 199.224 117C201.624 115.067 203.058 112.45 203.524 109.15C203.591 109.017 203.658 108.917 203.724 108.85C203.791 108.783 203.841 108.75 203.874 108.75C203.974 108.75 204.058 108.8 204.124 108.9C204.191 108.967 204.224 109.1 204.224 109.3C203.924 112.3 202.958 114.983 201.324 117.35C199.724 119.717 197.624 121.583 195.024 122.95C192.424 124.317 189.508 125 186.274 125C182.341 125 178.874 124.117 175.874 122.35C172.908 120.55 170.591 118.017 168.924 114.75C167.291 111.483 166.474 107.633 166.474 103.2C166.474 98.5667 167.324 94.4667 169.024 90.9C170.758 87.3 173.174 84.4833 176.274 82.45C179.374 80.3833 182.991 79.35 187.124 79.35C190.658 79.35 193.724 80.1333 196.324 81.7C198.924 83.2667 200.941 85.4167 202.374 88.15C203.808 90.8833 204.524 94 204.524 97.5ZM223.312 51.05V121.25C223.312 121.65 223.412 121.983 223.612 122.25C223.812 122.483 224.128 122.65 224.562 122.75L227.662 123.2C227.895 123.233 228.045 123.3 228.112 123.4C228.178 123.467 228.212 123.55 228.212 123.65C228.212 123.75 228.162 123.833 228.062 123.9C227.995 123.967 227.895 124 227.762 124H209.762C209.662 124 209.562 123.967 209.462 123.9C209.395 123.833 209.362 123.75 209.362 123.65C209.362 123.55 209.412 123.467 209.512 123.4C209.645 123.3 209.828 123.217 210.062 123.15L213.112 122.75C213.578 122.65 213.895 122.483 214.062 122.25C214.262 121.983 214.362 121.667 214.362 121.3V55.4C214.362 55.2 214.312 55.05 214.212 54.95C214.145 54.8167 213.995 54.75 213.762 54.75H209.862C209.728 54.75 209.628 54.7167 209.562 54.65C209.495 54.55 209.462 54.4667 209.462 54.4C209.462 54.2667 209.495 54.1667 209.562 54.1C209.662 54.0333 209.778 53.9833 209.912 53.95L221.762 50.6C222.062 50.5 222.262 50.45 222.362 50.45C222.495 50.4167 222.628 50.4 222.762 50.4C222.928 50.4 223.062 50.4667 223.162 50.6C223.262 50.7 223.312 50.85 223.312 51.05ZM249.493 51.05V121.25C249.493 121.65 249.593 121.983 249.793 122.25C249.993 122.483 250.31 122.65 250.743 122.75L253.843 123.2C254.076 123.233 254.226 123.3 254.293 123.4C254.36 123.467 254.393 123.55 254.393 123.65C254.393 123.75 254.343 123.833 254.243 123.9C254.176 123.967 254.076 124 253.943 124H235.943C235.843 124 235.743 123.967 235.643 123.9C235.576 123.833 235.543 123.75 235.543 123.65C235.543 123.55 235.593 123.467 235.693 123.4C235.826 123.3 236.01 123.217 236.243 123.15L239.293 122.75C239.76 122.65 240.076 122.483 240.243 122.25C240.443 121.983 240.543 121.667 240.543 121.3V55.4C240.543 55.2 240.493 55.05 240.393 54.95C240.326 54.8167 240.176 54.75 239.943 54.75H236.043C235.91 54.75 235.81 54.7167 235.743 54.65C235.676 54.55 235.643 54.4667 235.643 54.4C235.643 54.2667 235.676 54.1667 235.743 54.1C235.843 54.0333 235.96 53.9833 236.093 53.95L247.943 50.6C248.243 50.5 248.443 50.45 248.543 50.45C248.676 50.4167 248.81 50.4 248.943 50.4C249.11 50.4 249.243 50.4667 249.343 50.6C249.443 50.7 249.493 50.85 249.493 51.05ZM300.641 115.75L296.141 127.05L279.591 86.95C278.825 85.0833 277.925 83.7167 276.891 82.85C275.891 81.95 274.725 81.4 273.391 81.2C273.125 81.1333 272.958 81.0667 272.891 81C272.791 80.9 272.741 80.8167 272.741 80.75C272.741 80.6167 272.791 80.5333 272.891 80.5C272.991 80.4333 273.108 80.4 273.241 80.4H293.341C293.508 80.4 293.625 80.4333 293.691 80.5C293.791 80.5667 293.841 80.6667 293.841 80.8C293.841 80.9333 293.791 81.0333 293.691 81.1C293.625 81.1667 293.508 81.2167 293.341 81.25L289.441 81.7C288.608 81.8 288.108 82.15 287.941 82.75C287.775 83.35 287.891 84.1167 288.291 85.05L300.641 115.75ZM291.741 137.1L297.441 122.7L298.041 121.15L311.341 87C312.008 85.2667 312.158 84.0167 311.791 83.25C311.458 82.4833 310.675 82 309.441 81.8L306.541 81.25C306.341 81.2167 306.191 81.1667 306.091 81.1C305.991 81.0333 305.941 80.95 305.941 80.85C305.941 80.6833 305.975 80.5667 306.041 80.5C306.141 80.4333 306.275 80.4 306.441 80.4H318.791C318.958 80.4 319.091 80.4333 319.191 80.5C319.291 80.5667 319.341 80.6667 319.341 80.8C319.341 80.9333 319.291 81.0333 319.191 81.1C319.125 81.1333 318.975 81.1833 318.741 81.25C317.108 81.5167 315.791 82.0667 314.791 82.9C313.825 83.7333 312.991 85.0667 312.291 86.9L292.441 137.5C291.475 140.067 290.575 142.15 289.741 143.75C288.941 145.383 288.008 146.583 286.941 147.35C285.908 148.117 284.541 148.5 282.841 148.5C280.608 148.5 278.808 147.833 277.441 146.5C276.075 145.167 275.391 143.55 275.391 141.65C275.391 140.35 275.741 139.317 276.441 138.55C277.141 137.783 278.025 137.4 279.091 137.4C280.025 137.4 280.791 137.717 281.391 138.35C281.991 139.017 282.441 139.917 282.741 141.05L283.091 142.75C283.258 143.683 283.558 144.483 283.991 145.15C284.425 145.85 285.025 146.2 285.791 146.2C286.425 146.2 287.041 145.85 287.641 145.15C288.275 144.483 288.925 143.467 289.591 142.1C290.258 140.767 290.975 139.1 291.741 137.1ZM342.291 79.4C346.525 79.4 350.291 80.3833 353.591 82.35C356.891 84.2833 359.491 86.9833 361.391 90.45C363.291 93.8833 364.241 97.85 364.241 102.35C364.241 106.817 363.275 110.75 361.341 114.15C359.408 117.55 356.758 120.217 353.391 122.15C350.025 124.05 346.158 125 341.791 125C337.558 125 333.791 124.05 330.491 122.15C327.225 120.25 324.658 117.6 322.791 114.2C320.958 110.8 320.041 106.85 320.041 102.35C320.041 97.8833 320.975 93.9333 322.841 90.5C324.708 87.0333 327.308 84.3167 330.641 82.35C334.008 80.3833 337.891 79.4 342.291 79.4ZM344.641 124.05C347.141 123.85 349.225 122.833 350.891 121C352.591 119.133 353.775 116.517 354.441 113.15C355.141 109.783 355.241 105.733 354.741 101C354.241 96.2 353.291 92.2333 351.891 89.1C350.525 85.9333 348.791 83.6167 346.691 82.15C344.625 80.6833 342.275 80.0667 339.641 80.3C337.008 80.5333 334.858 81.6 333.191 83.5C331.525 85.4 330.375 88.0333 329.741 91.4C329.108 94.7667 329.041 98.7833 329.541 103.45C330.041 108.083 330.991 111.983 332.391 115.15C333.825 118.283 335.591 120.617 337.691 122.15C339.791 123.65 342.108 124.283 344.641 124.05ZM401.92 122.15V116.15V115.9V84.7C401.92 84.5 401.87 84.35 401.77 84.25C401.67 84.1167 401.503 84.05 401.27 84.05H397.42C397.286 84.05 397.17 84.0167 397.07 83.95C397.003 83.85 396.97 83.7667 396.97 83.7C396.97 83.5667 397.003 83.4667 397.07 83.4C397.17 83.3333 397.303 83.2833 397.47 83.25L409.27 79.9C409.57 79.8 409.786 79.75 409.92 79.75C410.053 79.7167 410.186 79.7 410.32 79.7C410.486 79.7 410.62 79.7667 410.72 79.9C410.82 80 410.87 80.15 410.87 80.35V121.25C410.87 121.65 410.97 121.983 411.17 122.25C411.37 122.483 411.686 122.65 412.12 122.75L415.22 123.2C415.42 123.233 415.553 123.3 415.62 123.4C415.72 123.467 415.77 123.55 415.77 123.65C415.77 123.75 415.72 123.833 415.62 123.9C415.553 123.967 415.436 124 415.27 124H403.52C403.02 124 402.62 123.85 402.32 123.55C402.053 123.25 401.92 122.783 401.92 122.15ZM373.67 111.85V84.7C373.67 84.5 373.603 84.35 373.47 84.25C373.37 84.1167 373.203 84.05 372.97 84.05H369.07C368.936 84.05 368.836 84.0167 368.77 83.95C368.703 83.85 368.67 83.7667 368.67 83.7C368.67 83.5667 368.703 83.4667 368.77 83.4C368.87 83.3333 368.986 83.2833 369.12 83.25L381.02 79.9C381.32 79.8 381.536 79.75 381.67 79.75C381.803 79.7167 381.92 79.7 382.02 79.7C382.22 79.7 382.353 79.7667 382.42 79.9C382.52 80 382.57 80.15 382.57 80.35V110.9C382.57 114.3 383.353 116.783 384.92 118.35C386.52 119.917 388.62 120.7 391.22 120.7C392.82 120.7 394.453 120.35 396.12 119.65C397.786 118.95 399.486 117.8 401.22 116.2L402.92 114.7L403.37 115.2L401.67 116.75C398.303 119.783 395.336 121.883 392.77 123.05C390.203 124.217 387.753 124.8 385.42 124.8C382.02 124.8 379.203 123.733 376.97 121.6C374.77 119.467 373.67 116.217 373.67 111.85ZM432.915 99.95C432.915 95.4167 433.532 91.6333 434.765 88.6C436.032 85.5667 437.648 83.2833 439.615 81.75C441.582 80.1833 443.615 79.4 445.715 79.4C448.115 79.4 449.965 80.1167 451.265 81.55C452.565 82.9833 453.215 84.95 453.215 87.45C453.215 89.3833 452.765 90.8333 451.865 91.8C450.998 92.7667 449.882 93.25 448.515 93.25C447.282 93.25 446.332 92.8833 445.665 92.15C444.998 91.4167 444.632 90.3333 444.565 88.9L444.515 87.45C444.515 86.2833 444.282 85.4167 443.815 84.85C443.348 84.2833 442.548 84 441.415 84C440.115 84 438.865 84.6 437.665 85.8C436.465 87 435.465 88.8 434.665 91.2C433.865 93.6 433.465 96.5833 433.465 100.15L432.915 99.95ZM433.465 80.5V97.4V121.05C433.465 121.417 433.582 121.733 433.815 122C434.048 122.267 434.365 122.45 434.765 122.55L439.715 123.25C439.915 123.283 440.048 123.333 440.115 123.4C440.215 123.433 440.265 123.517 440.265 123.65C440.265 123.75 440.215 123.833 440.115 123.9C440.015 123.967 439.882 124 439.715 124H420.065C419.898 124 419.765 123.967 419.665 123.9C419.565 123.8 419.515 123.7 419.515 123.6C419.515 123.533 419.565 123.467 419.665 123.4C419.798 123.3 419.965 123.233 420.165 123.2L423.315 122.75C423.748 122.65 424.048 122.483 424.215 122.25C424.415 122.017 424.515 121.733 424.515 121.4V84.5C424.515 84.3 424.465 84.1333 424.365 84C424.298 83.8667 424.148 83.8 423.915 83.8H419.965C419.865 83.7667 419.765 83.7167 419.665 83.65C419.598 83.5833 419.565 83.5167 419.565 83.45C419.565 83.3167 419.598 83.2167 419.665 83.15C419.765 83.0833 419.898 83.0333 420.065 83L431.915 80C432.182 79.9333 432.382 79.8833 432.515 79.85C432.682 79.8167 432.815 79.8 432.915 79.8C433.115 79.8 433.248 79.8667 433.315 80C433.415 80.1333 433.465 80.3 433.465 80.5ZM510.835 90.5C510.835 91.9 510.418 93.05 509.585 93.95C508.785 94.8167 507.702 95.25 506.335 95.25C504.968 95.25 503.868 94.8167 503.035 93.95C502.202 93.05 501.785 91.7833 501.785 90.15V87.25C501.785 85.1167 501.102 83.4167 499.735 82.15C498.402 80.85 496.568 80.2 494.235 80.2C491.835 80.2 489.735 80.9667 487.935 82.5C486.168 84.0333 484.785 86.1833 483.785 88.95C482.818 91.7167 482.335 94.95 482.335 98.65C482.335 103.083 483.002 106.833 484.335 109.9C485.668 112.933 487.485 115.25 489.785 116.85C492.085 118.417 494.668 119.2 497.535 119.2C500.635 119.2 503.302 118.45 505.535 116.95C507.802 115.417 509.385 113.083 510.285 109.95C510.318 109.817 510.368 109.733 510.435 109.7C510.502 109.633 510.568 109.6 510.635 109.6C510.735 109.6 510.802 109.65 510.835 109.75C510.902 109.817 510.918 109.917 510.885 110.05C510.218 113.217 509.052 115.917 507.385 118.15C505.752 120.35 503.718 122.033 501.285 123.2C498.885 124.333 496.168 124.9 493.135 124.9C489.502 124.9 486.218 124.067 483.285 122.4C480.385 120.7 478.085 118.217 476.385 114.95C474.685 111.683 473.835 107.683 473.835 102.95C473.835 98.5167 474.718 94.5333 476.485 91C478.285 87.4333 480.785 84.6 483.985 82.5C487.185 80.4 490.885 79.35 495.085 79.35C498.418 79.35 501.252 79.85 503.585 80.85C505.918 81.8167 507.702 83.15 508.935 84.85C510.202 86.55 510.835 88.4333 510.835 90.5ZM528.158 99.95C528.158 95.4167 528.774 91.6333 530.008 88.6C531.274 85.5667 532.891 83.2833 534.858 81.75C536.824 80.1833 538.858 79.4 540.958 79.4C543.358 79.4 545.208 80.1167 546.508 81.55C547.808 82.9833 548.458 84.95 548.458 87.45C548.458 89.3833 548.008 90.8333 547.108 91.8C546.241 92.7667 545.124 93.25 543.758 93.25C542.524 93.25 541.574 92.8833 540.908 92.15C540.241 91.4167 539.874 90.3333 539.808 88.9L539.758 87.45C539.758 86.2833 539.524 85.4167 539.058 84.85C538.591 84.2833 537.791 84 536.658 84C535.358 84 534.108 84.6 532.908 85.8C531.708 87 530.708 88.8 529.908 91.2C529.108 93.6 528.708 96.5833 528.708 100.15L528.158 99.95ZM528.708 80.5V97.4V121.05C528.708 121.417 528.824 121.733 529.058 122C529.291 122.267 529.608 122.45 530.008 122.55L534.958 123.25C535.158 123.283 535.291 123.333 535.358 123.4C535.458 123.433 535.508 123.517 535.508 123.65C535.508 123.75 535.458 123.833 535.358 123.9C535.258 123.967 535.124 124 534.958 124H515.308C515.141 124 515.008 123.967 514.908 123.9C514.808 123.8 514.758 123.7 514.758 123.6C514.758 123.533 514.808 123.467 514.908 123.4C515.041 123.3 515.208 123.233 515.408 123.2L518.558 122.75C518.991 122.65 519.291 122.483 519.458 122.25C519.658 122.017 519.758 121.733 519.758 121.4V84.5C519.758 84.3 519.708 84.1333 519.608 84C519.541 83.8667 519.391 83.8 519.158 83.8H515.208C515.108 83.7667 515.008 83.7167 514.908 83.65C514.841 83.5833 514.808 83.5167 514.808 83.45C514.808 83.3167 514.841 83.2167 514.908 83.15C515.008 83.0833 515.141 83.0333 515.308 83L527.158 80C527.424 79.9333 527.624 79.8833 527.758 79.85C527.924 79.8167 528.058 79.8 528.158 79.8C528.358 79.8 528.491 79.8667 528.558 80C528.658 80.1333 528.708 80.3 528.708 80.5ZM589.881 97.5C589.881 97.8 589.765 98.05 589.531 98.25C589.331 98.45 589.048 98.55 588.681 98.55H557.781V97.7H579.981C580.581 97.7 580.881 97.3833 580.881 96.75C580.881 91.2833 579.981 87.1667 578.181 84.4C576.415 81.6 574.165 80.2 571.431 80.2C569.065 80.2 567.031 80.9333 565.331 82.4C563.665 83.8333 562.381 85.95 561.481 88.75C560.581 91.5167 560.131 94.9 560.131 98.9C560.131 105.733 561.598 110.933 564.531 114.5C567.498 118.067 571.331 119.85 576.031 119.85C579.365 119.85 582.215 118.9 584.581 117C586.981 115.067 588.415 112.45 588.881 109.15C588.948 109.017 589.015 108.917 589.081 108.85C589.148 108.783 589.198 108.75 589.231 108.75C589.331 108.75 589.415 108.8 589.481 108.9C589.548 108.967 589.581 109.1 589.581 109.3C589.281 112.3 588.315 114.983 586.681 117.35C585.081 119.717 582.981 121.583 580.381 122.95C577.781 124.317 574.865 125 571.631 125C567.698 125 564.231 124.117 561.231 122.35C558.265 120.55 555.948 118.017 554.281 114.75C552.648 111.483 551.831 107.633 551.831 103.2C551.831 98.5667 552.681 94.4667 554.381 90.9C556.115 87.3 558.531 84.4833 561.631 82.45C564.731 80.3833 568.348 79.35 572.481 79.35C576.015 79.35 579.081 80.1333 581.681 81.7C584.281 83.2667 586.298 85.4167 587.731 88.15C589.165 90.8833 589.881 94 589.881 97.5ZM620.919 119.3V118.95L620.519 119.25V89.25C620.519 86.25 619.919 83.9667 618.719 82.4C617.519 80.8333 615.752 80.05 613.419 80.05C610.819 80.05 608.919 80.6667 607.719 81.9C606.519 83.1 605.919 84.3833 605.919 85.75V89.2C605.919 90.6 605.452 91.7333 604.519 92.6C603.619 93.4667 602.452 93.9 601.019 93.9C599.952 93.9 599.069 93.5667 598.369 92.9C597.702 92.2 597.369 91.1833 597.369 89.85C597.369 88.15 598.019 86.5 599.319 84.9C600.619 83.2667 602.535 81.9333 605.069 80.9C607.635 79.8667 610.769 79.35 614.469 79.35C619.502 79.35 623.252 80.4667 625.719 82.7C628.219 84.9 629.469 87.9833 629.469 91.95V118.5C629.469 119.867 629.685 120.833 630.119 121.4C630.585 121.967 631.135 122.25 631.769 122.25C632.402 122.25 632.952 122.067 633.419 121.7C633.885 121.333 634.169 120.783 634.269 120.05C634.302 119.95 634.335 119.883 634.369 119.85C634.435 119.783 634.502 119.75 634.569 119.75C634.669 119.75 634.735 119.783 634.769 119.85C634.802 119.883 634.819 119.967 634.819 120.1C634.819 120.667 634.569 121.317 634.069 122.05C633.602 122.783 632.835 123.433 631.769 124C630.735 124.567 629.369 124.85 627.669 124.85C625.402 124.85 623.702 124.35 622.569 123.35C621.469 122.35 620.919 121 620.919 119.3ZM594.969 114.4C594.969 110.933 596.402 108.117 599.269 105.95C602.135 103.75 606.502 102.65 612.369 102.65C614.702 102.65 616.635 102.883 618.169 103.35C619.735 103.783 621.185 104.317 622.519 104.95L622.169 105.4C620.869 104.8 619.502 104.317 618.069 103.95C616.669 103.583 615.102 103.4 613.369 103.4C610.335 103.4 608.019 104.267 606.419 106C604.852 107.733 604.069 110.067 604.069 113C604.069 115.9 604.802 118.167 606.269 119.8C607.769 121.4 609.735 122.2 612.169 122.2C613.869 122.2 615.535 121.833 617.169 121.1C618.835 120.333 620.235 119.233 621.369 117.8L621.869 118.2C620.335 120.367 618.285 122.033 615.719 123.2C613.185 124.333 610.435 124.9 607.469 124.9C603.735 124.9 600.719 123.933 598.419 122C596.119 120.033 594.969 117.5 594.969 114.4ZM642.419 82L637.819 81.2C637.652 81.1333 637.519 81.0667 637.419 81C637.352 80.9333 637.319 80.85 637.319 80.75C637.319 80.65 637.352 80.5667 637.419 80.5C637.519 80.4333 637.602 80.4 637.669 80.4H642.219C642.519 80.4 642.752 80.35 642.919 80.25C643.119 80.15 643.269 80 643.369 79.8L650.419 70.8C650.552 70.6333 650.685 70.5 650.819 70.4C650.985 70.3 651.152 70.25 651.319 70.25C651.485 70.25 651.619 70.3 651.719 70.4C651.819 70.5 651.869 70.65 651.869 70.85V113.85C651.869 116.383 652.369 118.283 653.369 119.55C654.369 120.783 655.735 121.4 657.469 121.4C658.135 121.4 658.769 121.317 659.369 121.15C659.969 120.95 660.519 120.65 661.019 120.25C661.519 119.85 661.969 119.35 662.369 118.75C662.769 118.15 663.102 117.433 663.369 116.6C663.469 116.467 663.569 116.417 663.669 116.45C663.802 116.45 663.852 116.567 663.819 116.8C663.285 118.6 662.585 120.1 661.719 121.3C660.852 122.467 659.769 123.35 658.469 123.95C657.169 124.517 655.635 124.8 653.869 124.8C650.502 124.8 647.869 124 645.969 122.4C644.102 120.767 643.169 118.267 643.169 114.9V83.05C643.169 82.75 643.119 82.5167 643.019 82.35C642.919 82.1833 642.719 82.0667 642.419 82ZM648.869 81.45L649.069 80.4H663.319C663.519 80.4 663.652 80.4333 663.719 80.5C663.785 80.5667 663.819 80.6667 663.819 80.8C663.819 80.9667 663.702 81.1167 663.469 81.25C663.269 81.3833 662.969 81.45 662.569 81.45H648.869ZM681.437 80.25V121.25C681.437 121.65 681.537 121.983 681.737 122.25C681.937 122.483 682.253 122.65 682.687 122.75L685.787 123.2C686.02 123.233 686.17 123.3 686.237 123.4C686.303 123.467 686.337 123.55 686.337 123.65C686.337 123.75 686.303 123.833 686.237 123.9C686.17 123.967 686.053 124 685.887 124H667.887C667.787 124 667.687 123.967 667.587 123.9C667.52 123.833 667.487 123.75 667.487 123.65C667.487 123.583 667.52 123.517 667.587 123.45C667.687 123.383 667.82 123.333 667.987 123.3L671.287 122.75C671.72 122.65 672.02 122.483 672.187 122.25C672.387 121.983 672.487 121.667 672.487 121.3V84.6C672.487 84.4 672.437 84.25 672.337 84.15C672.27 84.05 672.12 83.9833 671.887 83.95H667.987C667.853 83.95 667.753 83.9167 667.687 83.85C667.62 83.7833 667.587 83.7 667.587 83.6C667.587 83.4667 667.62 83.3833 667.687 83.35C667.787 83.2833 667.903 83.2167 668.037 83.15L679.887 79.85C680.187 79.75 680.387 79.7 680.487 79.7C680.62 79.6667 680.753 79.65 680.887 79.65C681.087 79.65 681.22 79.7167 681.287 79.85C681.387 79.95 681.437 80.0833 681.437 80.25ZM676.687 71.55C675.02 71.55 673.67 70.9833 672.637 69.85C671.603 68.7167 671.087 67.3333 671.087 65.7C671.087 64.0333 671.603 62.65 672.637 61.55C673.703 60.4167 675.053 59.85 676.687 59.85C678.353 59.85 679.72 60.4167 680.787 61.55C681.853 62.6833 682.387 64.0667 682.387 65.7C682.387 67.3333 681.837 68.7167 680.737 69.85C679.67 70.9833 678.32 71.55 676.687 71.55ZM711.898 124.15H708.448C708.214 124.15 707.998 124.1 707.798 124C707.598 123.867 707.464 123.667 707.398 123.4L692.598 84.35C692.331 83.65 692.014 83.05 691.648 82.55C691.314 82.05 690.848 81.75 690.248 81.65L688.198 81.25C687.931 81.1833 687.748 81.1167 687.648 81.05C687.548 80.9833 687.498 80.8833 687.498 80.75C687.498 80.6167 687.548 80.5333 687.648 80.5C687.714 80.4333 687.798 80.4 687.898 80.4H707.798C708.131 80.4 708.298 80.5167 708.298 80.75C708.298 80.8833 708.248 80.9833 708.148 81.05C708.081 81.0833 707.948 81.1333 707.748 81.2L705.298 81.65C703.531 81.9833 702.464 82.4333 702.098 83C701.764 83.5333 701.814 84.35 702.248 85.45L714.198 117.85L712.548 120.75L725.098 86.35C725.598 85.0167 725.631 83.9833 725.198 83.25C724.798 82.4833 723.764 81.95 722.098 81.65L719.348 81.2C719.148 81.1333 718.998 81.0833 718.898 81.05C718.831 80.9833 718.798 80.8833 718.798 80.75C718.798 80.6167 718.831 80.5333 718.898 80.5C718.998 80.4333 719.131 80.4 719.298 80.4H732.398C732.531 80.4 732.631 80.4333 732.698 80.5C732.764 80.5333 732.798 80.6167 732.798 80.75C732.798 80.8833 732.748 80.9833 732.648 81.05C732.548 81.1167 732.364 81.1833 732.098 81.25L730.298 81.6C729.464 81.7667 728.764 82.2 728.198 82.9C727.631 83.5667 727.131 84.55 726.698 85.85L712.848 123.45C712.781 123.717 712.664 123.9 712.498 124C712.331 124.1 712.131 124.15 711.898 124.15ZM748.057 80.25V121.25C748.057 121.65 748.157 121.983 748.357 122.25C748.557 122.483 748.874 122.65 749.307 122.75L752.407 123.2C752.64 123.233 752.79 123.3 752.857 123.4C752.924 123.467 752.957 123.55 752.957 123.65C752.957 123.75 752.924 123.833 752.857 123.9C752.79 123.967 752.674 124 752.507 124H734.507C734.407 124 734.307 123.967 734.207 123.9C734.14 123.833 734.107 123.75 734.107 123.65C734.107 123.583 734.14 123.517 734.207 123.45C734.307 123.383 734.44 123.333 734.607 123.3L737.907 122.75C738.34 122.65 738.64 122.483 738.807 122.25C739.007 121.983 739.107 121.667 739.107 121.3V84.6C739.107 84.4 739.057 84.25 738.957 84.15C738.89 84.05 738.74 83.9833 738.507 83.95H734.607C734.474 83.95 734.374 83.9167 734.307 83.85C734.24 83.7833 734.207 83.7 734.207 83.6C734.207 83.4667 734.24 83.3833 734.307 83.35C734.407 83.2833 734.524 83.2167 734.657 83.15L746.507 79.85C746.807 79.75 747.007 79.7 747.107 79.7C747.24 79.6667 747.374 79.65 747.507 79.65C747.707 79.65 747.84 79.7167 747.907 79.85C748.007 79.95 748.057 80.0833 748.057 80.25ZM743.307 71.55C741.64 71.55 740.29 70.9833 739.257 69.85C738.224 68.7167 737.707 67.3333 737.707 65.7C737.707 64.0333 738.224 62.65 739.257 61.55C740.324 60.4167 741.674 59.85 743.307 59.85C744.974 59.85 746.34 60.4167 747.407 61.55C748.474 62.6833 749.007 64.0667 749.007 65.7C749.007 67.3333 748.457 68.7167 747.357 69.85C746.29 70.9833 744.94 71.55 743.307 71.55ZM760.718 82L756.118 81.2C755.951 81.1333 755.818 81.0667 755.718 81C755.651 80.9333 755.618 80.85 755.618 80.75C755.618 80.65 755.651 80.5667 755.718 80.5C755.818 80.4333 755.901 80.4 755.968 80.4H760.518C760.818 80.4 761.051 80.35 761.218 80.25C761.418 80.15 761.568 80 761.668 79.8L768.718 70.8C768.851 70.6333 768.985 70.5 769.118 70.4C769.285 70.3 769.451 70.25 769.618 70.25C769.785 70.25 769.918 70.3 770.018 70.4C770.118 70.5 770.168 70.65 770.168 70.85V113.85C770.168 116.383 770.668 118.283 771.668 119.55C772.668 120.783 774.035 121.4 775.768 121.4C776.435 121.4 777.068 121.317 777.668 121.15C778.268 120.95 778.818 120.65 779.318 120.25C779.818 119.85 780.268 119.35 780.668 118.75C781.068 118.15 781.401 117.433 781.668 116.6C781.768 116.467 781.868 116.417 781.968 116.45C782.101 116.45 782.151 116.567 782.118 116.8C781.585 118.6 780.885 120.1 780.018 121.3C779.151 122.467 778.068 123.35 776.768 123.95C775.468 124.517 773.935 124.8 772.168 124.8C768.801 124.8 766.168 124 764.268 122.4C762.401 120.767 761.468 118.267 761.468 114.9V83.05C761.468 82.75 761.418 82.5167 761.318 82.35C761.218 82.1833 761.018 82.0667 760.718 82ZM767.168 81.45L767.368 80.4H781.618C781.818 80.4 781.951 80.4333 782.018 80.5C782.085 80.5667 782.118 80.6667 782.118 80.8C782.118 80.9667 782.001 81.1167 781.768 81.25C781.568 81.3833 781.268 81.45 780.868 81.45H767.168ZM810.636 115.75L806.136 127.05L789.586 86.95C788.819 85.0833 787.919 83.7167 786.886 82.85C785.886 81.95 784.719 81.4 783.386 81.2C783.119 81.1333 782.953 81.0667 782.886 81C782.786 80.9 782.736 80.8167 782.736 80.75C782.736 80.6167 782.786 80.5333 782.886 80.5C782.986 80.4333 783.103 80.4 783.236 80.4H803.336C803.503 80.4 803.619 80.4333 803.686 80.5C803.786 80.5667 803.836 80.6667 803.836 80.8C803.836 80.9333 803.786 81.0333 803.686 81.1C803.619 81.1667 803.503 81.2167 803.336 81.25L799.436 81.7C798.603 81.8 798.103 82.15 797.936 82.75C797.769 83.35 797.886 84.1167 798.286 85.05L810.636 115.75ZM801.736 137.1L807.436 122.7L808.036 121.15L821.336 87C822.003 85.2667 822.153 84.0167 821.786 83.25C821.453 82.4833 820.669 82 819.436 81.8L816.536 81.25C816.336 81.2167 816.186 81.1667 816.086 81.1C815.986 81.0333 815.936 80.95 815.936 80.85C815.936 80.6833 815.969 80.5667 816.036 80.5C816.136 80.4333 816.269 80.4 816.436 80.4H828.786C828.953 80.4 829.086 80.4333 829.186 80.5C829.286 80.5667 829.336 80.6667 829.336 80.8C829.336 80.9333 829.286 81.0333 829.186 81.1C829.119 81.1333 828.969 81.1833 828.736 81.25C827.103 81.5167 825.786 82.0667 824.786 82.9C823.819 83.7333 822.986 85.0667 822.286 86.9L802.436 137.5C801.469 140.067 800.569 142.15 799.736 143.75C798.936 145.383 798.003 146.583 796.936 147.35C795.903 148.117 794.536 148.5 792.836 148.5C790.603 148.5 788.803 147.833 787.436 146.5C786.069 145.167 785.386 143.55 785.386 141.65C785.386 140.35 785.736 139.317 786.436 138.55C787.136 137.783 788.019 137.4 789.086 137.4C790.019 137.4 790.786 137.717 791.386 138.35C791.986 139.017 792.436 139.917 792.736 141.05L793.086 142.75C793.253 143.683 793.553 144.483 793.986 145.15C794.419 145.85 795.019 146.2 795.786 146.2C796.419 146.2 797.036 145.85 797.636 145.15C798.269 144.483 798.919 143.467 799.586 142.1C800.253 140.767 800.969 139.1 801.736 137.1ZM851.859 82L847.259 81.2C847.093 81.1333 846.959 81.0667 846.859 81C846.793 80.9333 846.759 80.85 846.759 80.75C846.759 80.65 846.793 80.5667 846.859 80.5C846.959 80.4333 847.043 80.4 847.109 80.4H851.659C851.959 80.4 852.193 80.35 852.359 80.25C852.559 80.15 852.709 80 852.809 79.8L859.859 70.8C859.993 70.6333 860.126 70.5 860.259 70.4C860.426 70.3 860.593 70.25 860.759 70.25C860.926 70.25 861.059 70.3 861.159 70.4C861.259 70.5 861.309 70.65 861.309 70.85V113.85C861.309 116.383 861.809 118.283 862.809 119.55C863.809 120.783 865.176 121.4 866.909 121.4C867.576 121.4 868.209 121.317 868.809 121.15C869.409 120.95 869.959 120.65 870.459 120.25C870.959 119.85 871.409 119.35 871.809 118.75C872.209 118.15 872.543 117.433 872.809 116.6C872.909 116.467 873.009 116.417 873.109 116.45C873.243 116.45 873.293 116.567 873.259 116.8C872.726 118.6 872.026 120.1 871.159 121.3C870.293 122.467 869.209 123.35 867.909 123.95C866.609 124.517 865.076 124.8 863.309 124.8C859.943 124.8 857.309 124 855.409 122.4C853.543 120.767 852.609 118.267 852.609 114.9V83.05C852.609 82.75 852.559 82.5167 852.459 82.35C852.359 82.1833 852.159 82.0667 851.859 82ZM858.309 81.45L858.509 80.4H872.759C872.959 80.4 873.093 80.4333 873.159 80.5C873.226 80.5667 873.259 80.6667 873.259 80.8C873.259 80.9667 873.143 81.1167 872.909 81.25C872.709 81.3833 872.409 81.45 872.009 81.45H858.309ZM898.789 79.4C903.022 79.4 906.789 80.3833 910.089 82.35C913.389 84.2833 915.989 86.9833 917.889 90.45C919.789 93.8833 920.739 97.85 920.739 102.35C920.739 106.817 919.772 110.75 917.839 114.15C915.906 117.55 913.256 120.217 909.889 122.15C906.522 124.05 902.656 125 898.289 125C894.056 125 890.289 124.05 886.989 122.15C883.722 120.25 881.156 117.6 879.289 114.2C877.456 110.8 876.539 106.85 876.539 102.35C876.539 97.8833 877.472 93.9333 879.339 90.5C881.206 87.0333 883.806 84.3167 887.139 82.35C890.506 80.3833 894.389 79.4 898.789 79.4ZM901.139 124.05C903.639 123.85 905.722 122.833 907.389 121C909.089 119.133 910.272 116.517 910.939 113.15C911.639 109.783 911.739 105.733 911.239 101C910.739 96.2 909.789 92.2333 908.389 89.1C907.022 85.9333 905.289 83.6167 903.189 82.15C901.122 80.6833 898.772 80.0667 896.139 80.3C893.506 80.5333 891.356 81.6 889.689 83.5C888.022 85.4 886.872 88.0333 886.239 91.4C885.606 94.7667 885.539 98.7833 886.039 103.45C886.539 108.083 887.489 111.983 888.889 115.15C890.322 118.283 892.089 120.617 894.189 122.15C896.289 123.65 898.606 124.283 901.139 124.05ZM946.614 82L942.014 81.2C941.847 81.1333 941.714 81.0667 941.614 81C941.547 80.9333 941.514 80.85 941.514 80.75C941.514 80.65 941.547 80.5667 941.614 80.5C941.714 80.4333 941.797 80.4 941.864 80.4H946.414C946.714 80.4 946.947 80.35 947.114 80.25C947.314 80.15 947.464 80 947.564 79.8L954.614 70.8C954.747 70.6333 954.881 70.5 955.014 70.4C955.181 70.3 955.347 70.25 955.514 70.25C955.681 70.25 955.814 70.3 955.914 70.4C956.014 70.5 956.064 70.65 956.064 70.85V113.85C956.064 116.383 956.564 118.283 957.564 119.55C958.564 120.783 959.931 121.4 961.664 121.4C962.331 121.4 962.964 121.317 963.564 121.15C964.164 120.95 964.714 120.65 965.214 120.25C965.714 119.85 966.164 119.35 966.564 118.75C966.964 118.15 967.297 117.433 967.564 116.6C967.664 116.467 967.764 116.417 967.864 116.45C967.997 116.45 968.047 116.567 968.014 116.8C967.481 118.6 966.781 120.1 965.914 121.3C965.047 122.467 963.964 123.35 962.664 123.95C961.364 124.517 959.831 124.8 958.064 124.8C954.697 124.8 952.064 124 950.164 122.4C948.297 120.767 947.364 118.267 947.364 114.9V83.05C947.364 82.75 947.314 82.5167 947.214 82.35C947.114 82.1833 946.914 82.0667 946.614 82ZM953.064 81.45L953.264 80.4H967.514C967.714 80.4 967.847 80.4333 967.914 80.5C967.981 80.5667 968.014 80.6667 968.014 80.8C968.014 80.9667 967.897 81.1167 967.664 81.25C967.464 81.3833 967.164 81.45 966.764 81.45H953.064ZM985.382 51.05V121.25C985.382 121.65 985.482 121.983 985.682 122.25C985.882 122.483 986.182 122.65 986.582 122.75L989.732 123.2C990.065 123.267 990.232 123.417 990.232 123.65C990.232 123.883 990.082 124 989.782 124H971.832C971.699 124 971.582 123.967 971.482 123.9C971.415 123.833 971.382 123.75 971.382 123.65C971.382 123.55 971.432 123.467 971.532 123.4C971.665 123.3 971.865 123.217 972.132 123.15L975.182 122.75C975.615 122.65 975.932 122.483 976.132 122.25C976.332 121.983 976.432 121.667 976.432 121.3V55.4C976.432 55.2 976.382 55.05 976.282 54.95C976.182 54.8167 976.015 54.75 975.782 54.75H971.932C971.799 54.75 971.682 54.7167 971.582 54.65C971.515 54.55 971.482 54.4667 971.482 54.4C971.482 54.2667 971.515 54.1667 971.582 54.1C971.682 54.0333 971.799 53.9833 971.932 53.95L983.782 50.6C984.082 50.5 984.299 50.45 984.432 50.45C984.565 50.4167 984.682 50.4 984.782 50.4C984.982 50.4 985.132 50.4667 985.232 50.6C985.332 50.7 985.382 50.85 985.382 51.05ZM984.582 89.5L984.132 89L985.832 87.45C989.065 84.5167 991.815 82.45 994.082 81.25C996.382 80.0167 998.582 79.4 1000.68 79.4C1003.82 79.4 1006.25 80.4333 1007.98 82.5C1009.75 84.5333 1010.92 87.6667 1011.48 91.9L1015.33 120.85C1015.4 121.383 1015.55 121.833 1015.78 122.2C1016.05 122.567 1016.47 122.783 1017.03 122.85L1019.68 123.3C1019.88 123.3 1020.02 123.333 1020.08 123.4C1020.15 123.467 1020.18 123.55 1020.18 123.65C1020.18 123.75 1020.13 123.833 1020.03 123.9C1019.97 123.967 1019.87 124 1019.73 124H1001.48C1001.12 124 1000.93 123.883 1000.93 123.65C1000.93 123.45 1001.13 123.3 1001.53 123.2L1004.73 122.75C1005.33 122.65 1005.75 122.433 1005.98 122.1C1006.22 121.733 1006.3 121.317 1006.23 120.85L1002.63 92.8C1002.2 89.5667 1001.42 87.2 1000.28 85.7C999.149 84.2 997.482 83.45 995.282 83.45C993.849 83.45 992.415 83.8167 990.982 84.55C989.549 85.2833 987.982 86.4167 986.282 87.95L984.582 89.5ZM1060.33 97.5C1060.33 97.8 1060.21 98.05 1059.98 98.25C1059.78 98.45 1059.49 98.55 1059.13 98.55H1028.23V97.7H1050.43C1051.03 97.7 1051.33 97.3833 1051.33 96.75C1051.33 91.2833 1050.43 87.1667 1048.63 84.4C1046.86 81.6 1044.61 80.2 1041.88 80.2C1039.51 80.2 1037.48 80.9333 1035.78 82.4C1034.11 83.8333 1032.83 85.95 1031.93 88.75C1031.03 91.5167 1030.58 94.9 1030.58 98.9C1030.58 105.733 1032.04 110.933 1034.98 114.5C1037.94 118.067 1041.78 119.85 1046.48 119.85C1049.81 119.85 1052.66 118.9 1055.03 117C1057.43 115.067 1058.86 112.45 1059.33 109.15C1059.39 109.017 1059.46 108.917 1059.53 108.85C1059.59 108.783 1059.64 108.75 1059.68 108.75C1059.78 108.75 1059.86 108.8 1059.93 108.9C1059.99 108.967 1060.03 109.1 1060.03 109.3C1059.73 112.3 1058.76 114.983 1057.13 117.35C1055.53 119.717 1053.43 121.583 1050.83 122.95C1048.23 124.317 1045.31 125 1042.08 125C1038.14 125 1034.68 124.117 1031.68 122.35C1028.71 120.55 1026.39 118.017 1024.73 114.75C1023.09 111.483 1022.28 107.633 1022.28 103.2C1022.28 98.5667 1023.13 94.4667 1024.83 90.9C1026.56 87.3 1028.98 84.4833 1032.08 82.45C1035.18 80.3833 1038.79 79.35 1042.93 79.35C1046.46 79.35 1049.53 80.1333 1052.13 81.7C1054.73 83.2667 1056.74 85.4167 1058.18 88.15C1059.61 90.8833 1060.33 94 1060.33 97.5ZM402.994 254.05H399.544C399.277 254.05 399.06 254 398.894 253.9C398.76 253.767 398.644 253.567 398.544 253.3L385.444 213.35C385.244 212.683 384.96 212.233 384.594 212C384.227 211.733 383.744 211.55 383.144 211.45L381.044 211.1C380.877 211.067 380.76 211.017 380.694 210.95C380.627 210.883 380.594 210.817 380.594 210.75C380.594 210.617 380.644 210.533 380.744 210.5C380.81 210.433 380.91 210.4 381.044 210.4H400.094C400.26 210.4 400.377 210.433 400.444 210.5C400.51 210.567 400.544 210.667 400.544 210.8C400.544 210.867 400.51 210.933 400.444 211C400.377 211.033 400.244 211.083 400.044 211.15L397.294 211.55C396.227 211.717 395.56 212.083 395.294 212.65C395.06 213.183 395.094 213.95 395.394 214.95L405.544 246.4L403.794 250.6L415.144 214.6L415.994 215.2L403.894 253.4C403.827 253.6 403.71 253.767 403.544 253.9C403.377 254 403.194 254.05 402.994 254.05ZM430.444 254.05H426.994C426.76 254.05 426.56 253.983 426.394 253.85C426.227 253.683 426.094 253.467 425.994 253.2L413.094 213.75C412.86 213.017 412.577 212.483 412.244 212.15C411.944 211.817 411.544 211.6 411.044 211.5L409.244 211.2C409.01 211.133 408.844 211.067 408.744 211C408.677 210.933 408.644 210.85 408.644 210.75C408.644 210.517 408.794 210.4 409.094 210.4H427.744C428.077 210.4 428.244 210.533 428.244 210.8C428.244 210.9 428.21 210.983 428.144 211.05C428.077 211.117 427.927 211.167 427.694 211.2L424.494 211.85C423.494 212.05 422.894 212.367 422.694 212.8C422.527 213.2 422.56 213.783 422.794 214.55L433.144 246.7L431.094 251.2L441.744 217.35C442.31 215.583 442.394 214.233 441.994 213.3C441.627 212.367 440.76 211.8 439.394 211.6L436.744 211.15C436.544 211.083 436.394 211.033 436.294 211C436.227 210.933 436.194 210.85 436.194 210.75C436.194 210.617 436.227 210.533 436.294 210.5C436.394 210.433 436.51 210.4 436.644 210.4H448.294C448.46 210.4 448.577 210.433 448.644 210.5C448.744 210.567 448.794 210.667 448.794 210.8C448.794 210.9 448.76 210.983 448.694 211.05C448.627 211.117 448.494 211.167 448.294 211.2L447.044 211.6C446.11 211.9 445.294 212.517 444.594 213.45C443.927 214.383 443.327 215.683 442.794 217.35L431.394 253.25C431.327 253.517 431.21 253.717 431.044 253.85C430.877 253.983 430.677 254.05 430.444 254.05ZM471.919 209.4C476.152 209.4 479.919 210.383 483.219 212.35C486.519 214.283 489.119 216.983 491.019 220.45C492.919 223.883 493.869 227.85 493.869 232.35C493.869 236.817 492.902 240.75 490.969 244.15C489.035 247.55 486.385 250.217 483.019 252.15C479.652 254.05 475.785 255 471.419 255C467.185 255 463.419 254.05 460.119 252.15C456.852 250.25 454.285 247.6 452.419 244.2C450.585 240.8 449.669 236.85 449.669 232.35C449.669 227.883 450.602 223.933 452.469 220.5C454.335 217.033 456.935 214.317 460.269 212.35C463.635 210.383 467.519 209.4 471.919 209.4ZM474.269 254.05C476.769 253.85 478.852 252.833 480.519 251C482.219 249.133 483.402 246.517 484.069 243.15C484.769 239.783 484.869 235.733 484.369 231C483.869 226.2 482.919 222.233 481.519 219.1C480.152 215.933 478.419 213.617 476.319 212.15C474.252 210.683 471.902 210.067 469.269 210.3C466.635 210.533 464.485 211.6 462.819 213.5C461.152 215.4 460.002 218.033 459.369 221.4C458.735 224.767 458.669 228.783 459.169 233.45C459.669 238.083 460.619 241.983 462.019 245.15C463.452 248.283 465.219 250.617 467.319 252.15C469.419 253.65 471.735 254.283 474.269 254.05ZM511.947 229.95C511.947 225.417 512.564 221.633 513.797 218.6C515.064 215.567 516.68 213.283 518.647 211.75C520.614 210.183 522.647 209.4 524.747 209.4C527.147 209.4 528.997 210.117 530.297 211.55C531.597 212.983 532.247 214.95 532.247 217.45C532.247 219.383 531.797 220.833 530.897 221.8C530.03 222.767 528.914 223.25 527.547 223.25C526.314 223.25 525.364 222.883 524.697 222.15C524.03 221.417 523.664 220.333 523.597 218.9L523.547 217.45C523.547 216.283 523.314 215.417 522.847 214.85C522.38 214.283 521.58 214 520.447 214C519.147 214 517.897 214.6 516.697 215.8C515.497 217 514.497 218.8 513.697 221.2C512.897 223.6 512.497 226.583 512.497 230.15L511.947 229.95ZM512.497 210.5V227.4V251.05C512.497 251.417 512.614 251.733 512.847 252C513.08 252.267 513.397 252.45 513.797 252.55L518.747 253.25C518.947 253.283 519.08 253.333 519.147 253.4C519.247 253.433 519.297 253.517 519.297 253.65C519.297 253.75 519.247 253.833 519.147 253.9C519.047 253.967 518.914 254 518.747 254H499.097C498.93 254 498.797 253.967 498.697 253.9C498.597 253.8 498.547 253.7 498.547 253.6C498.547 253.533 498.597 253.467 498.697 253.4C498.83 253.3 498.997 253.233 499.197 253.2L502.347 252.75C502.78 252.65 503.08 252.483 503.247 252.25C503.447 252.017 503.547 251.733 503.547 251.4V214.5C503.547 214.3 503.497 214.133 503.397 214C503.33 213.867 503.18 213.8 502.947 213.8H498.997C498.897 213.767 498.797 213.717 498.697 213.65C498.63 213.583 498.597 213.517 498.597 213.45C498.597 213.317 498.63 213.217 498.697 213.15C498.797 213.083 498.93 213.033 499.097 213L510.947 210C511.214 209.933 511.414 209.883 511.547 209.85C511.714 209.817 511.847 209.8 511.947 209.8C512.147 209.8 512.28 209.867 512.347 210C512.447 210.133 512.497 210.3 512.497 210.5ZM549.87 181.05V251.25C549.87 251.65 549.97 251.983 550.17 252.25C550.37 252.483 550.687 252.65 551.12 252.75L554.22 253.2C554.454 253.233 554.604 253.3 554.67 253.4C554.737 253.467 554.77 253.55 554.77 253.65C554.77 253.75 554.72 253.833 554.62 253.9C554.554 253.967 554.454 254 554.32 254H536.32C536.22 254 536.12 253.967 536.02 253.9C535.954 253.833 535.92 253.75 535.92 253.65C535.92 253.55 535.97 253.467 536.07 253.4C536.204 253.3 536.387 253.217 536.62 253.15L539.67 252.75C540.137 252.65 540.454 252.483 540.62 252.25C540.82 251.983 540.92 251.667 540.92 251.3V185.4C540.92 185.2 540.87 185.05 540.77 184.95C540.704 184.817 540.554 184.75 540.32 184.75H536.42C536.287 184.75 536.187 184.717 536.12 184.65C536.054 184.55 536.02 184.467 536.02 184.4C536.02 184.267 536.054 184.167 536.12 184.1C536.22 184.033 536.337 183.983 536.47 183.95L548.32 180.6C548.62 180.5 548.82 180.45 548.92 180.45C549.054 180.417 549.187 180.4 549.32 180.4C549.487 180.4 549.62 180.467 549.72 180.6C549.82 180.7 549.87 180.85 549.87 181.05ZM591.622 247.75V247.55V185.4C591.622 185.2 591.572 185.05 591.472 184.95C591.372 184.817 591.205 184.75 590.972 184.75H587.122C586.989 184.75 586.872 184.717 586.772 184.65C586.705 184.55 586.672 184.467 586.672 184.4C586.672 184.267 586.705 184.167 586.772 184.1C586.872 184.033 586.989 183.983 587.122 183.95L598.972 180.6C599.272 180.5 599.489 180.45 599.622 180.45C599.755 180.417 599.872 180.4 599.972 180.4C600.172 180.4 600.322 180.467 600.422 180.6C600.522 180.7 600.572 180.85 600.572 181.05V251.25C600.572 251.65 600.672 251.983 600.872 252.25C601.072 252.483 601.372 252.65 601.772 252.75L604.922 253.2C605.122 253.233 605.255 253.3 605.322 253.4C605.422 253.467 605.472 253.55 605.472 253.65C605.472 253.75 605.422 253.833 605.322 253.9C605.255 253.967 605.139 254 604.972 254H593.172C592.672 254 592.289 253.867 592.022 253.6C591.755 253.3 591.622 252.833 591.622 252.2V247.75ZM559.322 233.35C559.322 228.383 560.255 224.117 562.122 220.55C563.989 216.95 566.472 214.2 569.572 212.3C572.705 210.367 576.122 209.4 579.822 209.4C583.222 209.4 586.089 210.133 588.422 211.6C590.789 213.067 592.689 215.017 594.122 217.45L593.272 217.95C592.139 215.783 590.572 214.05 588.572 212.75C586.605 211.45 584.289 210.8 581.622 210.8C579.189 210.8 576.972 211.567 574.972 213.1C572.972 214.6 571.372 216.95 570.172 220.15C568.972 223.35 568.372 227.433 568.372 232.4C568.372 236.9 568.889 240.65 569.922 243.65C570.989 246.65 572.439 248.9 574.272 250.4C576.139 251.9 578.272 252.65 580.672 252.65C582.505 252.65 584.422 252.15 586.422 251.15C588.455 250.15 590.422 248.467 592.322 246.1L592.822 246.7C590.189 249.767 587.689 251.917 585.322 253.15C582.955 254.383 580.372 255 577.572 255C574.072 255 570.939 254.117 568.172 252.35C565.439 250.583 563.272 248.083 561.672 244.85C560.105 241.583 559.322 237.75 559.322 233.35ZM645.433 254.05H641.983C641.716 254.05 641.499 254 641.333 253.9C641.199 253.767 641.083 253.567 640.983 253.3L627.883 213.35C627.683 212.683 627.399 212.233 627.033 212C626.666 211.733 626.183 211.55 625.583 211.45L623.483 211.1C623.316 211.067 623.199 211.017 623.133 210.95C623.066 210.883 623.033 210.817 623.033 210.75C623.033 210.617 623.083 210.533 623.183 210.5C623.249 210.433 623.349 210.4 623.483 210.4H642.533C642.699 210.4 642.816 210.433 642.883 210.5C642.949 210.567 642.983 210.667 642.983 210.8C642.983 210.867 642.949 210.933 642.883 211C642.816 211.033 642.683 211.083 642.483 211.15L639.733 211.55C638.666 211.717 637.999 212.083 637.733 212.65C637.499 213.183 637.533 213.95 637.833 214.95L647.983 246.4L646.233 250.6L657.583 214.6L658.433 215.2L646.333 253.4C646.266 253.6 646.149 253.767 645.983 253.9C645.816 254 645.633 254.05 645.433 254.05ZM672.883 254.05H669.433C669.199 254.05 668.999 253.983 668.833 253.85C668.666 253.683 668.533 253.467 668.433 253.2L655.533 213.75C655.299 213.017 655.016 212.483 654.683 212.15C654.383 211.817 653.983 211.6 653.483 211.5L651.683 211.2C651.449 211.133 651.283 211.067 651.183 211C651.116 210.933 651.083 210.85 651.083 210.75C651.083 210.517 651.233 210.4 651.533 210.4H670.183C670.516 210.4 670.683 210.533 670.683 210.8C670.683 210.9 670.649 210.983 670.583 211.05C670.516 211.117 670.366 211.167 670.133 211.2L666.933 211.85C665.933 212.05 665.333 212.367 665.133 212.8C664.966 213.2 664.999 213.783 665.233 214.55L675.583 246.7L673.533 251.2L684.183 217.35C684.749 215.583 684.833 214.233 684.433 213.3C684.066 212.367 683.199 211.8 681.833 211.6L679.183 211.15C678.983 211.083 678.833 211.033 678.733 211C678.666 210.933 678.633 210.85 678.633 210.75C678.633 210.617 678.666 210.533 678.733 210.5C678.833 210.433 678.949 210.4 679.083 210.4H690.733C690.899 210.4 691.016 210.433 691.083 210.5C691.183 210.567 691.233 210.667 691.233 210.8C691.233 210.9 691.199 210.983 691.133 211.05C691.066 211.117 690.933 211.167 690.733 211.2L689.483 211.6C688.549 211.9 687.733 212.517 687.033 213.45C686.366 214.383 685.766 215.683 685.233 217.35L673.833 253.25C673.766 253.517 673.649 253.717 673.483 253.85C673.316 253.983 673.116 254.05 672.883 254.05ZM706.934 210.25V251.25C706.934 251.65 707.034 251.983 707.234 252.25C707.434 252.483 707.751 252.65 708.184 252.75L711.284 253.2C711.518 253.233 711.668 253.3 711.734 253.4C711.801 253.467 711.834 253.55 711.834 253.65C711.834 253.75 711.801 253.833 711.734 253.9C711.668 253.967 711.551 254 711.384 254H693.384C693.284 254 693.184 253.967 693.084 253.9C693.018 253.833 692.984 253.75 692.984 253.65C692.984 253.583 693.018 253.517 693.084 253.45C693.184 253.383 693.318 253.333 693.484 253.3L696.784 252.75C697.218 252.65 697.518 252.483 697.684 252.25C697.884 251.983 697.984 251.667 697.984 251.3V214.6C697.984 214.4 697.934 214.25 697.834 214.15C697.768 214.05 697.618 213.983 697.384 213.95H693.484C693.351 213.95 693.251 213.917 693.184 213.85C693.118 213.783 693.084 213.7 693.084 213.6C693.084 213.467 693.118 213.383 693.184 213.35C693.284 213.283 693.401 213.217 693.534 213.15L705.384 209.85C705.684 209.75 705.884 209.7 705.984 209.7C706.118 209.667 706.251 209.65 706.384 209.65C706.584 209.65 706.718 209.717 706.784 209.85C706.884 209.95 706.934 210.083 706.934 210.25ZM702.184 201.55C700.518 201.55 699.168 200.983 698.134 199.85C697.101 198.717 696.584 197.333 696.584 195.7C696.584 194.033 697.101 192.65 698.134 191.55C699.201 190.417 700.551 189.85 702.184 189.85C703.851 189.85 705.218 190.417 706.284 191.55C707.351 192.683 707.884 194.067 707.884 195.7C707.884 197.333 707.334 198.717 706.234 199.85C705.168 200.983 703.818 201.55 702.184 201.55ZM719.595 212L714.995 211.2C714.829 211.133 714.695 211.067 714.595 211C714.529 210.933 714.495 210.85 714.495 210.75C714.495 210.65 714.529 210.567 714.595 210.5C714.695 210.433 714.779 210.4 714.845 210.4H719.395C719.695 210.4 719.929 210.35 720.095 210.25C720.295 210.15 720.445 210 720.545 209.8L727.595 200.8C727.729 200.633 727.862 200.5 727.995 200.4C728.162 200.3 728.329 200.25 728.495 200.25C728.662 200.25 728.795 200.3 728.895 200.4C728.995 200.5 729.045 200.65 729.045 200.85V243.85C729.045 246.383 729.545 248.283 730.545 249.55C731.545 250.783 732.912 251.4 734.645 251.4C735.312 251.4 735.945 251.317 736.545 251.15C737.145 250.95 737.695 250.65 738.195 250.25C738.695 249.85 739.145 249.35 739.545 248.75C739.945 248.15 740.279 247.433 740.545 246.6C740.645 246.467 740.745 246.417 740.845 246.45C740.979 246.45 741.029 246.567 740.995 246.8C740.462 248.6 739.762 250.1 738.895 251.3C738.029 252.467 736.945 253.35 735.645 253.95C734.345 254.517 732.812 254.8 731.045 254.8C727.679 254.8 725.045 254 723.145 252.4C721.279 250.767 720.345 248.267 720.345 244.9V213.05C720.345 212.75 720.295 212.517 720.195 212.35C720.095 212.183 719.895 212.067 719.595 212ZM726.045 211.45L726.245 210.4H740.495C740.695 210.4 740.829 210.433 740.895 210.5C740.962 210.567 740.995 210.667 740.995 210.8C740.995 210.967 740.879 211.117 740.645 211.25C740.445 211.383 740.145 211.45 739.745 211.45H726.045ZM758.363 181.05V251.25C758.363 251.65 758.463 251.983 758.663 252.25C758.863 252.483 759.163 252.65 759.563 252.75L762.713 253.2C763.047 253.267 763.213 253.417 763.213 253.65C763.213 253.883 763.063 254 762.763 254H744.813C744.68 254 744.563 253.967 744.463 253.9C744.397 253.833 744.363 253.75 744.363 253.65C744.363 253.55 744.413 253.467 744.513 253.4C744.647 253.3 744.847 253.217 745.113 253.15L748.163 252.75C748.597 252.65 748.913 252.483 749.113 252.25C749.313 251.983 749.413 251.667 749.413 251.3V185.4C749.413 185.2 749.363 185.05 749.263 184.95C749.163 184.817 748.997 184.75 748.763 184.75H744.913C744.78 184.75 744.663 184.717 744.563 184.65C744.497 184.55 744.463 184.467 744.463 184.4C744.463 184.267 744.497 184.167 744.563 184.1C744.663 184.033 744.78 183.983 744.913 183.95L756.763 180.6C757.063 180.5 757.28 180.45 757.413 180.45C757.547 180.417 757.663 180.4 757.763 180.4C757.963 180.4 758.113 180.467 758.213 180.6C758.313 180.7 758.363 180.85 758.363 181.05ZM757.563 219.5L757.113 219L758.813 217.45C762.047 214.517 764.797 212.45 767.063 211.25C769.363 210.017 771.563 209.4 773.663 209.4C776.797 209.4 779.23 210.433 780.963 212.5C782.73 214.533 783.897 217.667 784.463 221.9L788.313 250.85C788.38 251.383 788.53 251.833 788.763 252.2C789.03 252.567 789.447 252.783 790.013 252.85L792.663 253.3C792.863 253.3 792.997 253.333 793.063 253.4C793.13 253.467 793.163 253.55 793.163 253.65C793.163 253.75 793.113 253.833 793.013 253.9C792.947 253.967 792.847 254 792.713 254H774.463C774.097 254 773.913 253.883 773.913 253.65C773.913 253.45 774.113 253.3 774.513 253.2L777.713 252.75C778.313 252.65 778.73 252.433 778.963 252.1C779.197 251.733 779.28 251.317 779.213 250.85L775.613 222.8C775.18 219.567 774.397 217.2 773.263 215.7C772.13 214.2 770.463 213.45 768.263 213.45C766.83 213.45 765.397 213.817 763.963 214.55C762.53 215.283 760.963 216.417 759.263 217.95L757.563 219.5Z" fill="#242F65"/>
<path d="M869.956 221.25L868.106 187.8C868.006 186.533 867.656 185.5 867.056 184.7C866.456 183.9 865.39 183.283 863.856 182.85L859.006 181.75C858.806 181.717 858.673 181.667 858.606 181.6C858.54 181.533 858.506 181.45 858.506 181.35C858.506 181.25 858.54 181.167 858.606 181.1C858.706 181.033 858.823 181 858.956 181H877.156C877.29 181 877.39 181.033 877.456 181.1C877.556 181.167 877.606 181.25 877.606 181.35C877.606 181.45 877.556 181.533 877.456 181.6C877.356 181.667 877.19 181.733 876.956 181.8L872.906 183C871.74 183.333 870.806 183.933 870.106 184.8C869.44 185.667 869.156 186.667 869.256 187.8L871.106 220.8C871.206 222.567 871.306 224.333 871.406 226.1C871.506 227.867 871.573 229.667 871.606 231.5C871.606 235.333 870.823 238.833 869.256 242C867.723 245.167 865.29 247.683 861.956 249.55C858.623 251.383 854.273 252.3 848.906 252.3C843.04 252.3 838.173 251.433 834.306 249.7C830.44 247.967 827.556 245.6 825.656 242.6C823.756 239.6 822.823 236.2 822.856 232.4C822.856 231.433 822.873 230.183 822.906 228.65C822.973 227.117 823.056 225.567 823.156 224C823.256 222.4 823.34 221.033 823.406 219.9L825.456 183.85C825.49 183.417 825.356 183.1 825.056 182.9C824.756 182.7 824.273 182.55 823.606 182.45L819.056 181.75C818.656 181.65 818.456 181.517 818.456 181.35C818.456 181.25 818.49 181.167 818.556 181.1C818.656 181.033 818.806 181 819.006 181H842.306C842.473 181 842.59 181.033 842.656 181.1C842.756 181.167 842.806 181.25 842.806 181.35C842.806 181.45 842.756 181.533 842.656 181.6C842.59 181.667 842.456 181.717 842.256 181.75L837.556 182.45C836.923 182.55 836.456 182.7 836.156 182.9C835.89 183.1 835.74 183.467 835.706 184L833.706 219.6C833.573 222.133 833.49 224.467 833.456 226.6C833.423 228.7 833.406 230.467 833.406 231.9C833.406 238.3 834.94 243.083 838.006 246.25C841.073 249.383 845.39 250.95 850.956 250.95C854.923 250.95 858.356 250.167 861.256 248.6C864.156 247.033 866.39 244.817 867.956 241.95C869.556 239.083 870.356 235.7 870.356 231.8C870.356 229.733 870.306 227.817 870.206 226.05C870.106 224.283 870.023 222.683 869.956 221.25ZM901.377 248.2C901.377 248.6 901.527 248.9 901.827 249.1C902.127 249.3 902.577 249.45 903.177 249.55L907.777 250.25C908.143 250.283 908.327 250.417 908.327 250.65C908.327 250.75 908.277 250.833 908.177 250.9C908.11 250.967 907.993 251 907.827 251H884.577C884.41 251 884.277 250.967 884.177 250.9C884.11 250.833 884.077 250.75 884.077 250.65C884.077 250.417 884.26 250.283 884.627 250.25L889.227 249.55C889.827 249.45 890.277 249.3 890.577 249.1C890.877 248.9 891.027 248.6 891.027 248.2V183.8C891.027 183.4 890.877 183.1 890.577 182.9C890.277 182.667 889.827 182.517 889.227 182.45L884.627 181.75C884.26 181.717 884.077 181.583 884.077 181.35C884.077 181.25 884.11 181.167 884.177 181.1C884.277 181.033 884.41 181 884.577 181H907.827C907.993 181 908.11 181.033 908.177 181.1C908.277 181.167 908.327 181.25 908.327 181.35C908.327 181.583 908.143 181.717 907.777 181.75L903.177 182.45C902.577 182.517 902.127 182.667 901.827 182.9C901.527 183.1 901.377 183.4 901.377 183.8V248.2ZM968.217 221.25L966.367 187.8C966.267 186.533 965.917 185.5 965.317 184.7C964.717 183.9 963.651 183.283 962.117 182.85L957.267 181.75C957.067 181.717 956.934 181.667 956.867 181.6C956.801 181.533 956.767 181.45 956.767 181.35C956.767 181.25 956.801 181.167 956.867 181.1C956.967 181.033 957.084 181 957.217 181H975.417C975.551 181 975.651 181.033 975.717 181.1C975.817 181.167 975.867 181.25 975.867 181.35C975.867 181.45 975.817 181.533 975.717 181.6C975.617 181.667 975.451 181.733 975.217 181.8L971.167 183C970.001 183.333 969.067 183.933 968.367 184.8C967.701 185.667 967.417 186.667 967.517 187.8L969.367 220.8C969.467 222.567 969.567 224.333 969.667 226.1C969.767 227.867 969.834 229.667 969.867 231.5C969.867 235.333 969.084 238.833 967.517 242C965.984 245.167 963.551 247.683 960.217 249.55C956.884 251.383 952.534 252.3 947.167 252.3C941.301 252.3 936.434 251.433 932.567 249.7C928.701 247.967 925.817 245.6 923.917 242.6C922.017 239.6 921.084 236.2 921.117 232.4C921.117 231.433 921.134 230.183 921.167 228.65C921.234 227.117 921.317 225.567 921.417 224C921.517 222.4 921.601 221.033 921.667 219.9L923.717 183.85C923.751 183.417 923.617 183.1 923.317 182.9C923.017 182.7 922.534 182.55 921.867 182.45L917.317 181.75C916.917 181.65 916.717 181.517 916.717 181.35C916.717 181.25 916.751 181.167 916.817 181.1C916.917 181.033 917.067 181 917.267 181H940.567C940.734 181 940.851 181.033 940.917 181.1C941.017 181.167 941.067 181.25 941.067 181.35C941.067 181.45 941.017 181.533 940.917 181.6C940.851 181.667 940.717 181.717 940.517 181.75L935.817 182.45C935.184 182.55 934.717 182.7 934.417 182.9C934.151 183.1 934.001 183.467 933.967 184L931.967 219.6C931.834 222.133 931.751 224.467 931.717 226.6C931.684 228.7 931.667 230.467 931.667 231.9C931.667 238.3 933.201 243.083 936.267 246.25C939.334 249.383 943.651 250.95 949.217 250.95C953.184 250.95 956.617 250.167 959.517 248.6C962.417 247.033 964.651 244.817 966.217 241.95C967.817 239.083 968.617 235.7 968.617 231.8C968.617 229.733 968.567 227.817 968.467 226.05C968.367 224.283 968.284 222.683 968.217 221.25ZM1034.54 246.55C1035.1 247.483 1035.7 248.2 1036.34 248.7C1036.97 249.167 1037.64 249.517 1038.34 249.75C1039.04 249.95 1039.79 250.117 1040.59 250.25C1040.82 250.283 1040.99 250.333 1041.09 250.4C1041.19 250.467 1041.24 250.55 1041.24 250.65C1041.24 250.75 1041.19 250.833 1041.09 250.9C1041.02 250.967 1040.9 251 1040.74 251H1016.74C1016.57 251 1016.44 250.967 1016.34 250.9C1016.27 250.8 1016.24 250.7 1016.24 250.6C1016.24 250.5 1016.29 250.417 1016.39 250.35C1016.52 250.283 1016.75 250.233 1017.09 250.2C1019.05 249.933 1020.5 249.65 1021.44 249.35C1022.37 249.017 1022.9 248.617 1023.04 248.15C1023.2 247.65 1023.05 247.017 1022.59 246.25L986.887 185.1C986.387 184.233 985.837 183.583 985.237 183.15C984.671 182.717 984.021 182.417 983.287 182.25C982.587 182.05 981.804 181.883 980.937 181.75C980.704 181.683 980.537 181.617 980.437 181.55C980.371 181.483 980.337 181.417 980.337 181.35C980.337 181.25 980.387 181.167 980.487 181.1C980.587 181.033 980.704 181 980.837 181H1005.04C1005.2 181 1005.32 181.033 1005.39 181.1C1005.49 181.133 1005.54 181.217 1005.54 181.35C1005.54 181.417 1005.49 181.5 1005.39 181.6C1005.32 181.667 1005.17 181.7 1004.94 181.7L999.637 182.2C998.704 182.267 998.154 182.533 997.987 183C997.854 183.467 997.987 184.067 998.387 184.8L1034.54 246.55ZM1012.74 214.5L1011.99 214.15L1027.34 189.35C1028.54 187.35 1028.84 185.767 1028.24 184.6C1027.67 183.4 1026.44 182.617 1024.54 182.25L1021.04 181.8C1020.87 181.767 1020.75 181.733 1020.69 181.7C1020.62 181.633 1020.59 181.533 1020.59 181.4C1020.59 181.3 1020.62 181.217 1020.69 181.15C1020.75 181.083 1020.87 181.05 1021.04 181.05H1038.44C1038.74 181.05 1038.89 181.167 1038.89 181.4C1038.89 181.467 1038.82 181.55 1038.69 181.65C1038.59 181.75 1038.42 181.833 1038.19 181.9C1035.45 182.633 1033.4 183.65 1032.04 184.95C1030.7 186.217 1029.45 187.767 1028.29 189.6L1012.74 214.5ZM1007.74 215L1008.54 215.35L991.387 242.75C990.187 244.617 989.837 246.133 990.337 247.3C990.837 248.467 992.121 249.25 994.187 249.65L997.887 250.2C998.054 250.233 998.171 250.283 998.237 250.35C998.337 250.417 998.387 250.5 998.387 250.6C998.387 250.7 998.337 250.8 998.237 250.9C998.171 250.967 998.054 251 997.887 251H980.337C980.204 251 980.087 250.967 979.987 250.9C979.887 250.8 979.837 250.7 979.837 250.6C979.837 250.5 979.871 250.417 979.937 250.35C980.037 250.283 980.187 250.233 980.387 250.2C982.221 249.8 983.687 249.3 984.787 248.7C985.887 248.1 986.871 247.283 987.737 246.25C988.604 245.217 989.554 243.867 990.587 242.2L1007.74 215ZM1081.93 224.5C1081.93 224.8 1081.82 225.05 1081.58 225.25C1081.38 225.45 1081.1 225.55 1080.73 225.55H1049.83V224.7H1072.03C1072.63 224.7 1072.93 224.383 1072.93 223.75C1072.93 218.283 1072.03 214.167 1070.23 211.4C1068.47 208.6 1066.22 207.2 1063.48 207.2C1061.12 207.2 1059.08 207.933 1057.38 209.4C1055.72 210.833 1054.43 212.95 1053.53 215.75C1052.63 218.517 1052.18 221.9 1052.18 225.9C1052.18 232.733 1053.65 237.933 1056.58 241.5C1059.55 245.067 1063.38 246.85 1068.08 246.85C1071.42 246.85 1074.27 245.9 1076.63 244C1079.03 242.067 1080.47 239.45 1080.93 236.15C1081 236.017 1081.07 235.917 1081.13 235.85C1081.2 235.783 1081.25 235.75 1081.28 235.75C1081.38 235.75 1081.47 235.8 1081.53 235.9C1081.6 235.967 1081.63 236.1 1081.63 236.3C1081.33 239.3 1080.37 241.983 1078.73 244.35C1077.13 246.717 1075.03 248.583 1072.43 249.95C1069.83 251.317 1066.92 252 1063.68 252C1059.75 252 1056.28 251.117 1053.28 249.35C1050.32 247.55 1048 245.017 1046.33 241.75C1044.7 238.483 1043.88 234.633 1043.88 230.2C1043.88 225.567 1044.73 221.467 1046.43 217.9C1048.17 214.3 1050.58 211.483 1053.68 209.45C1056.78 207.383 1060.4 206.35 1064.53 206.35C1068.07 206.35 1071.13 207.133 1073.73 208.7C1076.33 210.267 1078.35 212.417 1079.78 215.15C1081.22 217.883 1081.93 221 1081.93 224.5ZM1099.72 226.95C1099.72 222.417 1100.34 218.633 1101.57 215.6C1102.84 212.567 1104.45 210.283 1106.42 208.75C1108.39 207.183 1110.42 206.4 1112.52 206.4C1114.92 206.4 1116.77 207.117 1118.07 208.55C1119.37 209.983 1120.02 211.95 1120.02 214.45C1120.02 216.383 1119.57 217.833 1118.67 218.8C1117.8 219.767 1116.69 220.25 1115.32 220.25C1114.09 220.25 1113.14 219.883 1112.47 219.15C1111.8 218.417 1111.44 217.333 1111.37 215.9L1111.32 214.45C1111.32 213.283 1111.09 212.417 1110.62 211.85C1110.15 211.283 1109.35 211 1108.22 211C1106.92 211 1105.67 211.6 1104.47 212.8C1103.27 214 1102.27 215.8 1101.47 218.2C1100.67 220.6 1100.27 223.583 1100.27 227.15L1099.72 226.95ZM1100.27 207.5V224.4V248.05C1100.27 248.417 1100.39 248.733 1100.62 249C1100.85 249.267 1101.17 249.45 1101.57 249.55L1106.52 250.25C1106.72 250.283 1106.85 250.333 1106.92 250.4C1107.02 250.433 1107.07 250.517 1107.07 250.65C1107.07 250.75 1107.02 250.833 1106.92 250.9C1106.82 250.967 1106.69 251 1106.52 251H1086.87C1086.7 251 1086.57 250.967 1086.47 250.9C1086.37 250.8 1086.32 250.7 1086.32 250.6C1086.32 250.533 1086.37 250.467 1086.47 250.4C1086.6 250.3 1086.77 250.233 1086.97 250.2L1090.12 249.75C1090.55 249.65 1090.85 249.483 1091.02 249.25C1091.22 249.017 1091.32 248.733 1091.32 248.4V211.5C1091.32 211.3 1091.27 211.133 1091.17 211C1091.1 210.867 1090.95 210.8 1090.72 210.8H1086.77C1086.67 210.767 1086.57 210.717 1086.47 210.65C1086.4 210.583 1086.37 210.517 1086.37 210.45C1086.37 210.317 1086.4 210.217 1086.47 210.15C1086.57 210.083 1086.7 210.033 1086.87 210L1098.72 207C1098.99 206.933 1099.19 206.883 1099.32 206.85C1099.49 206.817 1099.62 206.8 1099.72 206.8C1099.92 206.8 1100.05 206.867 1100.12 207C1100.22 207.133 1100.27 207.3 1100.27 207.5Z" fill="#FF774C"/>
</svg>
